<?xml version="1.0" standalone="no"?>
<!DOCTYPE svg PUBLIC "-//W3C//DTD SVG 20010904//EN"
 "http://www.w3.org/TR/2001/REC-SVG-20010904/DTD/svg10.dtd">
<svg version="1.0" xmlns="http://www.w3.org/2000/svg"
 width="970.000000pt" height="1280.000000pt" viewBox="0 0 970.000000 1280.000000"
 preserveAspectRatio="xMidYMid meet">

<g transform="translate(0.000000,1280.000000) scale(0.100000,-0.100000)"
fill="#000000" stroke="none">
<path d="M4096 10393 c-641 -1548 -1359 -3284 -2071 -5008 -438 -1061 -816
-1970 -840 -2020 -97 -202 -211 -361 -362 -506 -164 -157 -353 -274 -539 -332
-68 -21 -115 -33 -261 -63 l-23 -4 0 -265 0 -265 1640 0 1640 0 0 244 0 243
-82 7 c-46 4 -161 18 -257 32 -467 66 -720 154 -867 299 -111 108 -121 165
-79 430 20 127 81 335 179 612 96 272 279 764 360 963 l54 135 1533 0 1534 0
373 -905 c205 -498 386 -943 403 -990 22 -60 33 -110 36 -171 l6 -86 -39 -38
c-42 -42 -143 -92 -250 -124 -154 -46 -568 -121 -809 -147 l-155 -17 0 -244 0
-243 2240 0 2240 0 0 268 0 268 -62 13 c-101 20 -267 77 -348 119 -270 138
-455 322 -585 580 -105 210 -566 1339 -1408 3448 -567 1420 -932 2326 -1482
3682 l-249 612 -626 0 -625 0 -219 -527z m658 -3268 c351 -878 637 -1598 634
-1600 -3 -3 -576 -4 -1275 -3 l-1270 3 631 1598 c347 878 633 1597 636 1597 3
0 293 -718 644 -1595z"/>
</g>
</svg>
