<?xml version="1.0" standalone="no"?>
<!DOCTYPE svg PUBLIC "-//W3C//DTD SVG 20010904//EN"
 "http://www.w3.org/TR/2001/REC-SVG-20010904/DTD/svg10.dtd">
<svg version="1.0" xmlns="http://www.w3.org/2000/svg"
 width="570.000000pt" height="1280.000000pt" viewBox="0 0 570.000000 1280.000000"
 preserveAspectRatio="xMidYMid meet">

<g transform="translate(0.000000,1280.000000) scale(0.100000,-0.100000)"
fill="#000000" stroke="none">
<path d="M390 10555 c0 -135 3 -245 8 -245 55 0 400 -66 592 -112 318 -76 464
-141 581 -257 67 -67 80 -86 108 -161 66 -170 62 87 59 -3510 -3 -3087 -4
-3278 -21 -3335 -41 -143 -97 -230 -189 -300 -124 -93 -263 -142 -473 -164
-117 -13 -595 -51 -637 -51 l-28 0 0 -245 0 -245 2460 0 2460 0 0 245 0 245
-45 0 c-25 0 -128 12 -228 26 -365 51 -588 104 -725 173 -199 100 -290 216
-333 425 -19 93 -19 162 -17 3368 l3 3273 23 80 c37 125 77 198 146 263 139
129 344 187 892 251 143 17 266 31 272 31 9 0 12 66 12 245 l0 245 -2460 0
-2460 0 0 -245z"/>
</g>
</svg>
