<?xml version="1.0" standalone="no"?>
<!DOCTYPE svg PUBLIC "-//W3C//DTD SVG 20010904//EN"
 "http://www.w3.org/TR/2001/REC-SVG-20010904/DTD/svg10.dtd">
<svg version="1.0" xmlns="http://www.w3.org/2000/svg"
 width="762.000000pt" height="1280.000000pt" viewBox="0 0 762.000000 1280.000000"
 preserveAspectRatio="xMidYMid meet">

<g transform="translate(0.000000,1280.000000) scale(0.100000,-0.100000)"
fill="#000000" stroke="none">
<path d="M2550 10555 l0 -244 33 -5 c393 -64 634 -123 827 -201 252 -102 344
-188 402 -375 l23 -75 3 -2715 c3 -2821 3 -2853 -39 -3133 -143 -966 -697
-1516 -1529 -1518 -147 0 -233 14 -345 56 -182 68 -315 187 -315 280 0 41 2
44 108 132 116 98 360 342 465 464 235 273 323 478 334 774 10 292 -55 505
-223 721 -218 281 -540 424 -956 424 -209 0 -417 -45 -573 -123 -285 -142
-518 -447 -605 -790 -41 -163 -53 -289 -47 -502 11 -442 116 -774 345 -1094
210 -294 560 -554 960 -715 506 -203 1188 -272 1857 -186 803 103 1521 438
2012 937 399 406 662 938 747 1508 34 226 36 384 36 2921 0 2753 -3 2611 54
2774 45 127 118 204 244 255 137 56 514 134 870 180 l52 7 0 244 0 244 -2370
0 -2370 0 0 -245z"/>
</g>
</svg>
