<?xml version="1.0" standalone="no"?>
<!DOCTYPE svg PUBLIC "-//W3C//DTD SVG 20010904//EN"
 "http://www.w3.org/TR/2001/REC-SVG-20010904/DTD/svg10.dtd">
<svg version="1.0" xmlns="http://www.w3.org/2000/svg"
 width="1074.000000pt" height="1280.000000pt" viewBox="0 0 1074.000000 1280.000000"
 preserveAspectRatio="xMidYMid meet">

<g transform="translate(0.000000,1280.000000) scale(0.100000,-0.100000)"
fill="#000000" stroke="none">
<path d="M182 10548 l3 -252 105 -22 c279 -59 570 -166 745 -274 418 -257 634
-609 685 -1120 16 -163 8 -4898 -9 -5085 -45 -500 -105 -715 -253 -910 -180
-236 -531 -381 -1095 -452 l-143 -17 0 -243 0 -243 1905 0 1905 0 0 243 0 243
-117 23 c-271 55 -637 166 -806 244 -323 149 -493 417 -577 906 -56 325 -54
229 -57 2785 l-4 2359 213 -264 c117 -146 1360 -1688 2762 -3427 l2548 -3162
554 0 554 0 0 3213 c0 1963 4 3315 10 3477 26 678 100 1033 265 1266 145 204
434 359 760 409 122 19 349 50 428 60 l57 6 -2 242 -3 242 -1902 3 -1903 2 0
-245 0 -244 38 -6 c74 -13 363 -85 503 -125 428 -124 634 -257 773 -500 113
-198 173 -419 211 -775 31 -293 36 -675 33 -2398 l-3 -1708 -2425 3000 -2425
3001 -1668 0 -1667 0 2 -252z"/>
</g>
</svg>
