<?xml version="1.0" standalone="no"?>
<!DOCTYPE svg PUBLIC "-//W3C//DTD SVG 20010904//EN"
 "http://www.w3.org/TR/2001/REC-SVG-20010904/DTD/svg10.dtd">
<svg version="1.0" xmlns="http://www.w3.org/2000/svg"
 width="830.000000pt" height="1280.000000pt" viewBox="0 0 830.000000 1280.000000"
 preserveAspectRatio="xMidYMid meet">

<g transform="translate(0.000000,1280.000000) scale(0.100000,-0.100000)"
fill="#000000" stroke="none">
<path d="M3640 11023 c-781 -60 -1473 -300 -2008 -697 -124 -91 -378 -341
-474 -466 -250 -324 -416 -682 -487 -1053 -90 -467 -30 -1021 161 -1477 227
-540 588 -941 1124 -1247 299 -171 641 -301 1634 -623 927 -300 1043 -343
1310 -482 314 -164 528 -339 669 -546 188 -277 238 -645 141 -1027 -56 -218
-160 -409 -315 -573 -298 -316 -657 -464 -1220 -502 -428 -30 -849 45 -1184
210 -580 285 -1114 820 -1542 1543 -113 190 -365 692 -449 895 l-64 152 -268
0 -268 0 0 -42 c0 -87 70 -2878 76 -3015 l6 -143 262 0 261 0 218 218 217 218
193 -96 c537 -266 1200 -464 1797 -534 344 -41 894 -53 1190 -27 915 82 1595
326 2200 791 117 90 363 336 452 451 283 366 462 780 529 1224 25 162 29 485
9 665 -68 619 -288 1079 -711 1484 -290 278 -618 480 -1089 671 -218 88 -466
174 -1244 432 -847 280 -985 332 -1245 461 -594 297 -850 633 -868 1141 -14
391 93 669 361 936 317 316 718 459 1240 442 484 -16 844 -150 1226 -456 182
-145 366 -347 523 -573 212 -306 483 -839 712 -1403 l82 -200 266 -3 267 -2 0
77 c1 182 -41 2757 -46 2851 l-6 102 -266 0 -267 -1 -194 -187 -193 -187 -144
71 c-253 126 -685 287 -1004 375 -271 74 -574 127 -864 149 -118 9 -600 11
-706 3z"/>
</g>
</svg>
