<?xml version="1.0" standalone="no"?>
<!DOCTYPE svg PUBLIC "-//W3C//DTD SVG 20010904//EN"
 "http://www.w3.org/TR/2001/REC-SVG-20010904/DTD/svg10.dtd">
<svg version="1.0" xmlns="http://www.w3.org/2000/svg"
 width="96.000000pt" height="96.000000pt" viewBox="0 0 96.000000 96.000000"
 preserveAspectRatio="xMidYMid meet">
<metadata>
Created by potrace 1.14, written by Peter Selinger 2001-2017
</metadata>
<g transform="translate(0.000000,96.000000) scale(0.100000,-0.100000)"
fill="#000000" stroke="none">
<path d="M175 800 c-12 -13 -16 -28 -12 -48 11 -53 159 -442 177 -465 11 -13
53 -40 94 -60 41 -20 82 -47 92 -61 9 -15 21 -26 27 -26 12 0 246 108 264 122
8 6 9 19 3 39 -7 23 -3 51 17 112 35 112 33 160 -8 237 -36 68 -70 93 -178
132 l-63 23 -19 -24 c-39 -48 -12 -117 57 -146 l35 -14 -25 -38 c-31 -49 -40
-93 -27 -140 15 -53 -4 -67 -20 -14 -11 37 -15 41 -44 41 -18 0 -38 -7 -45
-15 -17 -21 -73 -19 -93 3 -8 9 -41 85 -72 167 -31 83 -63 160 -71 173 -18 28
-64 29 -89 2z"/>
<path d="M419 771 l-24 -20 33 -28 c28 -25 68 -105 106 -216 9 -27 42 -5 56
37 12 38 9 46 -36 113 -13 20 -24 46 -24 58 0 32 -37 75 -65 75 -12 0 -33 -9
-46 -19z"/>
<path d="M352 693 c-8 -14 -1 -42 25 -113 19 -52 40 -101 45 -107 18 -22 57
-15 69 11 15 32 5 76 -34 156 -28 58 -36 65 -64 68 -23 2 -34 -2 -41 -15z"/>
<path d="M123 398 c-36 -73 -34 -139 6 -179 35 -35 90 -40 119 -11 10 10 23
17 29 15 19 -7 23 13 8 34 -10 14 -22 19 -40 16 -24 -5 -37 -33 -14 -33 5 0 7
-4 4 -10 -11 -18 -71 -11 -91 11 -25 28 -23 92 4 145 19 38 20 54 2 54 -4 0
-16 -19 -27 -42z"/>
</g>
</svg>
